<?xml version="1.0" standalone="no"?>
<!DOCTYPE svg PUBLIC "-//W3C//DTD SVG 20010904//EN"
 "http://www.w3.org/TR/2001/REC-SVG-20010904/DTD/svg10.dtd">
<svg version="1.0" xmlns="http://www.w3.org/2000/svg"
 width="16.000000pt" height="16.000000pt" viewBox="0 0 16.000000 16.000000"
 preserveAspectRatio="xMidYMid meet">
<metadata>
Created by potrace 1.11, written by Peter Selinger 2001-2013
</metadata>
<g transform="translate(0.000000,16.000000) scale(0.004444,-0.004444)"
fill="#000000" stroke="none">
<path d="M0 1800 l0 -1800 1800 0 1800 0 0 1800 0 1800 -1800 0 -1800 0 0
-1800z m1921 544 c37 -19 63 -74 54 -115 -17 -77 -129 -107 -186 -50 -23 24
-29 38 -29 73 1 86 82 133 161 92z m-851 -549 l0 -505 -105 0 -105 0 0 505 0
505 105 0 105 0 0 -505z m598 180 l3 -90 -60 3 c-74 5 -122 -16 -153 -67 -22
-34 -23 -47 -26 -283 l-3 -248 -100 0 -99 0 0 385 0 385 95 0 94 0 3 -67 c2
-50 6 -63 12 -48 35 78 108 127 186 123 l45 -3 3 -90z m935 60 c83 -41 137
-112 137 -180 0 -25 0 -25 -92 -25 l-93 0 -15 33 c-21 44 -72 69 -133 64 -77
-7 -117 -46 -103 -102 8 -31 50 -49 184 -79 212 -48 272 -97 272 -223 -1 -165
-180 -271 -410 -242 -124 15 -209 71 -251 164 -34 73 -32 75 79 75 l98 0 16
-33 c47 -99 268 -84 268 18 0 38 -44 62 -168 90 -68 16 -146 40 -174 54 -167
84 -154 314 22 389 63 27 93 31 200 28 92 -2 112 -6 163 -31z m-633 -360 l0
-385 -105 0 -105 0 0 385 0 385 105 0 105 0 0 -385z"/>
</g>
</svg>
